<svg
    width="20px"
    height="20px"
    fill="#fff"
    viewBox="-6.5 -1 34 34"
    version="1.1"
    xmlns="http://www.w3.org/2000/svg">
    <title>pause</title>
    <path
        d="M0 6.563v18.875c0 0.531 0.438 0.969 0.969 0.969h6.625c0.5 0 0.906-0.438 0.906-0.969v-18.875c0-0.531-0.406-0.969-0.906-0.969h-6.625c-0.531 0-0.969 0.438-0.969 0.969zM12.281 6.563v18.875c0 0.531 0.438 0.969 0.938 0.969h6.625c0.531 0 0.969-0.438 0.969-0.969v-18.875c0-0.531-0.438-0.969-0.969-0.969h-6.625c-0.5 0-0.938 0.438-0.938 0.969z" />
</svg>